<svg xmlns="http://www.w3.org/2000/svg" height="40" viewBox="0 -960 960 960" width="40"><path d="M480-424.334 591.334-313q12 12 27.833 11.833Q635-301.333 647-313.672q12.667-12.338 12.667-27.997T647-369.666L535.666-480 647-591.334q12-12 12.333-27.833Q659.667-635 647-647q-12.274-12.667-27.833-12.667-15.56 0-27.833 12.667L480-535.666 368.666-647q-12-12-27.333-12.333Q326-659.667 314-647q-12.667 12.274-12.667 27.833 0 15.56 12.667 27.833L424.334-480 313-368.666q-12 12-11.833 27.333Q301.333-326 313.672-314q12.338 12.667 27.997 12.667T369.666-314L480-424.334ZM480.092-52Q391-52 313-85.334q-78-33.333-136.167-91.499-58.166-58.167-91.5-136.075Q52-390.816 52-479.908q0-89.759 33.334-167.759 33.333-78 91.395-135.868 58.062-57.868 136.019-91.5 77.957-33.632 167.104-33.632 89.815 0 167.893 33.58 78.079 33.58 135.898 91.36 57.818 57.78 91.421 135.807 33.603 78.027 33.603 167.92 0 89.184-33.632 167.173t-91.5 136.075q-57.868 58.085-135.777 91.419Q569.85-52 480.092-52ZM480-156.666q135.333 0 229.334-93.915 94-93.915 94-229.419 0-135.333-94-229.334-94.001-94-229.667-94-135 0-229.001 94-94 94.001-94 229.667 0 135 93.915 229.001 93.915 94 229.419 94ZM480-480Z"/></svg>