<svg xmlns="http://www.w3.org/2000/svg" height="40" viewBox="0 -960 960 960" width="40"><path d="M419.667-424.333 347-497q-14.334-14.333-35.408-14.333t-36.592 15q-14.333 15-14.167 36Q261-439.333 276-425l106 106.667q16.091 15.666 37.545 15.666 21.455 0 37.788-15.666L679-540.667q15.667-15 15.667-35.574 0-20.574-15.667-36.092-15-14.334-36.407-14-21.407.333-36.259 14.666L419.667-424.333ZM480.092-52Q391-52 313.013-85.417q-77.988-33.417-136.083-91.513-58.096-58.095-91.513-135.991Q52-390.816 52-479.908q0-89.759 33.417-167.746 33.417-77.987 91.408-135.785 57.991-57.797 135.935-91.512 77.945-33.716 167.092-33.716 89.815 0 167.881 33.664t135.814 91.373q57.747 57.709 91.433 135.723Q908.667-569.893 908.667-480q0 89.184-33.716 167.16-33.715 77.977-91.512 135.991-57.798 58.015-135.693 91.432Q569.85-52 480.092-52ZM480-156.666q135.333 0 229.334-93.915 94-93.915 94-229.419 0-135.333-94-229.334-94.001-94-229.667-94-135 0-229.001 94-94 94.001-94 229.667 0 135 93.915 229.001 93.915 94 229.419 94ZM480-480Z"/></svg>